<svg xmlns="http://www.w3.org/2000/svg" fill="white" viewBox="0 0 20 20" width="20" height="20" aria-label="Icon" role="img"><path d="M16.071 2.93a.5.5 0 1 0-.707.706 9 9 0 0 1 0 12.728.5.5 0 1 0 .707.707 10 10 0 0 0 0-14.142"></path><path fill-rule="evenodd" d="M9 3.5a.5.5 0 0 0-.854-.353L4.293 7H3a2 2 0 0 0-2 2v2a2 2 0 0 0 2 2h1.293l3.853 3.854A.5.5 0 0 0 9 16.5zM4.854 7.854 8 4.707v10.586l-3.146-3.146A.5.5 0 0 0 4.5 12H3a1 1 0 0 1-1-1V9a1 1 0 0 1 1-1h1.5a.5.5 0 0 0 .354-.146" clip-rule="evenodd"></path><path d="M11.828 7.172a.5.5 0 1 0-.707.707 3 3 0 0 1 0 4.243.5.5 0 0 0 .707.707 4 4 0 0 0 0-5.657"></path><path d="M13.243 5.05a.5.5 0 0 1 .707 0 7 7 0 0 1 0 9.9.5.5 0 0 1-.707-.707 6 6 0 0 0 0-8.485.5.5 0 0 1 0-.708"></path></svg>
