<svg xmlns="http://www.w3.org/2000/svg" fill="white" viewBox="0 0 20 20" width="20" height="20" aria-label="Icon" role="img"><path fill-rule="evenodd" d="M9 3.5a.5.5 0 0 0-.854-.354L4.293 7H3a2 2 0 0 0-2 2v2a2 2 0 0 0 2 2h1.293l3.853 3.854A.5.5 0 0 0 9 16.5zM4.854 7.854 8 4.707v10.586l-3.146-3.146A.5.5 0 0 0 4.5 12H3a1 1 0 0 1-1-1V9a1 1 0 0 1 1-1h1.5a.5.5 0 0 0 .354-.146" clip-rule="evenodd"></path><path d="M12.146 7.146a.5.5 0 0 1 .708 0L15 9.293l2.146-2.147a.5.5 0 0 1 .708.708L15.707 10l2.147 2.146a.5.5 0 0 1-.708.708L15 10.707l-2.146 2.147a.5.5 0 0 1-.708-.708L14.293 10l-2.147-2.146a.5.5 0 0 1 0-.708"></path></svg>
